<svg width="64" height="64" viewBox="0 0 64 64" fill="none" xmlns="http://www.w3.org/2000/svg">
<rect width="64" height="64" rx="32" fill="#FFA500" fill-opacity="0.2"/>
<path d="M30.0215 34.8186C29.9995 33.7655 29.6579 32.3505 29.3854 31.5762C28.8973 30.1911 28.0875 29.1256 27.5786 28.4938C27.5103 28.4094 27.447 28.3316 27.3912 28.263C26.937 27.704 26.2079 26.9104 25.6889 26.2558L17.7124 29.0136C17.7085 29.8489 17.6253 30.9234 17.6133 31.6436C17.6119 31.7311 17.61 31.83 17.6087 31.9368C17.5993 32.6519 17.6142 33.7781 17.9415 34.9889C18.1926 35.9184 18.9649 37.5942 19.69 38.4934C20.9745 40.0865 22.3681 41.5103 22.3681 41.5103L25.6517 40.3751L29.7835 38.9636C29.7835 38.9636 30.046 35.9787 30.0215 34.8186Z" fill="#FAD10F"/>
<path d="M25.1749 25.1385C24.9515 24.5479 24.2502 22.8912 24.2502 22.8912C23.6226 21.0759 21.438 20.1837 19.3711 20.8983C17.3045 21.6128 16.1375 23.6638 16.7651 25.4791C16.7651 25.4791 17.3203 27.314 17.4771 27.926C17.6936 28.7717 17.6699 29.8361 17.6679 30.2998L26.5103 27.224C26.2222 26.8601 25.4735 25.9289 25.1749 25.1385Z" fill="#EE232C"/>
<path d="M28.2652 33.6648C28.1644 30.9135 26.6769 28.8644 25.1965 26.8646C24.0832 26.8816 22.9989 26.5822 22.0757 26.0386L20.7704 26.4909C20.0962 27.515 19.2793 28.4171 18.3344 29.1896C18.4057 31.6918 18.4922 34.24 20.1226 36.48C20.1341 36.4951 20.1273 36.5116 20.1292 36.5278C21.5342 38.1712 23.5455 38.9432 25.351 38.319C27.1363 37.7017 28.2378 35.8867 28.3492 33.7577C28.3046 33.7416 28.2668 33.7163 28.2652 33.6648Z" fill="#FBED81"/>
<path d="M18.3358 29.189C18.1186 29.3669 17.9007 29.545 17.6686 29.7084C17.6381 30.471 17.6196 31.3557 17.6138 31.9395C17.606 32.7507 17.625 34.0889 18.097 35.4796C18.2004 35.6381 18.3333 35.7882 18.4681 35.912C18.7262 36.1493 19.049 36.2292 19.3584 36.1442C19.4764 36.0788 19.584 36.0142 19.6826 35.949C19.8229 36.1534 19.9739 36.3443 20.1306 36.5271C20.1287 36.5109 20.1355 36.4945 20.1241 36.4793C18.4936 34.2393 18.4071 31.6911 18.3358 29.189Z" fill="#FAD10F"/>
<path d="M28.8032 32.8783C29.0993 32.7539 29.3036 32.4918 29.3596 32.1459C29.3892 31.9653 29.4013 31.765 29.3854 31.5762C28.8973 30.1911 28.0854 29.127 27.5786 28.4938C27.2335 28.0634 26.6357 27.3311 26.1588 26.7725C25.8377 26.8321 25.5167 26.8588 25.1973 26.8637C26.6777 28.8635 28.1652 30.9126 28.266 33.6639C28.2676 33.7154 28.3054 33.7407 28.35 33.7568C28.364 33.4853 28.3649 33.21 28.3464 32.9305C28.4868 32.9226 28.6383 32.9049 28.8032 32.8783Z" fill="#FAD10F"/>
<path d="M19.6276 21.6373C19.2356 21.7728 18.8862 21.972 18.5901 22.2155C18.2202 22.5204 17.9332 22.8948 17.75 23.3032C17.7133 23.3845 17.6809 23.4674 17.6529 23.5515C17.5969 23.7195 17.5581 23.8917 17.5376 24.0657C17.4972 24.414 17.531 24.7694 17.6501 25.114C17.7105 25.2888 17.7902 25.4523 17.8863 25.6034C18.546 26.6435 19.983 27.0996 21.3524 26.6262C22.7668 26.1372 23.6253 24.824 23.4315 23.5604C23.4103 23.4226 23.3772 23.2852 23.3305 23.1501C22.8541 21.7723 21.1959 21.0951 19.6276 21.6373Z" fill="#FCD0B0"/>
<path d="M22.8849 22.3802C22.1607 21.5431 20.869 21.2084 19.6299 21.6368C18.3431 22.0817 17.5175 23.2092 17.5255 24.361C18.0596 24.1604 19.844 23.0578 20.3554 21.83C20.8034 22.2006 22.2341 22.5616 22.8849 22.3802Z" fill="#3B1818"/>
<path d="M20.3847 24.749C20.3748 24.7524 20.3632 24.7562 20.3592 24.7649C20.324 24.8388 20.4731 24.9005 20.5285 24.8423C20.5358 24.8346 20.5395 24.823 20.5357 24.8142C20.5221 24.7834 20.4587 24.7224 20.3847 24.749Z" fill="#3B1818"/>
<path d="M20.8806 24.5776C20.8901 24.5743 20.9016 24.5701 20.9104 24.5743C20.9837 24.6108 20.9042 24.7514 20.8248 24.7399C20.8146 24.7382 20.8042 24.7314 20.8017 24.7222C20.7934 24.6896 20.8056 24.6025 20.8806 24.5776Z" fill="#3B1818"/>
<path d="M20.5009 25.4646C20.6033 25.7032 20.7986 25.7323 20.9896 25.6662C21.2415 25.5791 21.2999 25.4329 21.2464 25.1971C21.1111 25.2689 20.7272 25.3971 20.5009 25.4646Z" fill="#F03B5E"/>
<path d="M20.8474 25.0549C20.8259 25.0578 20.744 25.0861 20.7251 25.0972C20.5716 25.1868 20.5493 25.4397 20.3425 25.4646C20.4474 25.5369 20.6868 25.5263 20.9123 25.4406C21.1426 25.3687 21.3373 25.2293 21.3755 25.1074C21.1975 25.2156 21.0234 25.0306 20.8474 25.0549Z" fill="#F03B5E"/>
<path d="M21.442 24.9947C21.3493 25.1248 21.2505 25.235 21.0831 25.2865C21.0088 25.3091 20.9419 25.2935 20.8659 25.3197C20.7798 25.3495 20.7465 25.3992 20.6588 25.4331C20.4954 25.4961 20.3496 25.4704 20.1963 25.4254C20.1947 25.4251 20.1932 25.4269 20.1944 25.4284C20.2707 25.5 20.4079 25.5347 20.521 25.5276C20.5831 25.524 20.6313 25.4962 20.6907 25.4603C20.754 25.4219 20.8263 25.3703 20.8775 25.3532C20.9254 25.3373 21.0154 25.3347 21.0751 25.3274C21.1437 25.3191 21.1987 25.3112 21.2498 25.2757C21.3435 25.2112 21.4296 25.0993 21.4454 24.9958C21.4458 24.9938 21.4431 24.9935 21.442 24.9947Z" fill="#C51A39"/>
<path d="M22.91 24.4866C22.9994 24.7451 22.8336 25.0366 22.5393 25.1384C22.2453 25.24 21.9345 25.1133 21.8452 24.8548C21.7559 24.5965 21.9219 24.3047 22.2159 24.203C22.5102 24.1013 22.8207 24.2284 22.91 24.4866Z" fill="#F8A0A4"/>
<path d="M19.8765 25.5354C19.9659 25.7939 19.7998 26.0855 19.5058 26.1872C19.2118 26.2888 18.9011 26.1621 18.8117 25.9036C18.7224 25.6453 18.8884 25.3535 19.1824 25.2518C19.4764 25.1502 19.7872 25.2771 19.8765 25.5354Z" fill="#F8A0A4"/>
<path d="M19.6406 21.6721C18.0966 22.2059 17.2218 23.7436 17.6908 25.1C18.1597 26.4561 19.7974 27.1252 21.3414 26.5913C22.8857 26.0574 23.7605 24.5197 23.2916 23.1636C22.8226 21.8072 21.1849 21.1382 19.6406 21.6721ZM21.3655 26.6613C19.7778 27.2102 18.0937 26.522 17.6115 25.1274C17.1293 23.7326 18.0288 22.1514 19.6165 21.6025C21.2046 21.0534 22.8886 21.7414 23.3708 23.1362C23.853 24.5308 22.9536 26.1122 21.3655 26.6613Z" fill="#3B1818"/>
<path d="M19.9292 24.3263C19.9292 24.3263 19.9864 24.4917 19.7339 24.7071C19.4815 24.9227 19.0702 24.933 18.9762 24.9166C18.8816 24.9008 18.6585 24.7762 18.6585 24.7762C18.6585 24.7762 18.8188 24.5391 18.9774 24.3708C19.136 24.2021 19.402 24.0099 19.9292 24.3263Z" fill="white"/>
<path d="M18.9192 24.6259C18.9859 24.8189 19.2178 24.9136 19.4375 24.8377C19.6575 24.7616 19.7814 24.5438 19.7147 24.3509C19.6479 24.1577 19.416 24.063 19.196 24.139C18.9763 24.215 18.8524 24.4328 18.9192 24.6259Z" fill="#5089CF"/>
<path d="M18.9295 24.3944C19.0818 24.1406 19.2853 24.0967 19.5685 24.1631C19.5862 24.1864 19.6015 24.2116 19.6113 24.2398C19.6681 24.4042 19.5625 24.5897 19.3754 24.6544C19.1886 24.719 18.9913 24.6382 18.9345 24.4738C18.9265 24.4508 18.9225 24.4275 18.9203 24.4041C18.9236 24.401 18.9268 24.3985 18.9295 24.3944Z" fill="#3B1818"/>
<path d="M19.2056 24.0874C19.6226 23.9658 19.8416 24.2636 19.9393 24.3077C19.9608 24.3177 19.9436 24.3467 19.9215 24.3394C19.7534 24.2844 19.5983 24.1595 19.4136 24.144C19.056 24.1148 18.9789 24.3849 18.8371 24.6063C18.7297 24.7747 18.5604 24.8908 18.3556 24.8342C18.45 24.8219 18.649 24.7651 18.7478 24.5929C18.8988 24.3298 18.9932 24.1494 19.2056 24.0874Z" fill="#3B1818"/>
<path d="M18.5685 23.9172C18.7664 23.4555 19.5428 23.4031 19.7693 23.8005C19.4999 23.6805 19.3787 23.6079 19.1573 23.6247C18.8945 23.644 18.7602 23.7603 18.5904 23.9293C18.5792 23.9406 18.5632 23.9296 18.5685 23.9172Z" fill="#3B1818"/>
<path d="M18.5903 24.936C18.7451 24.8311 18.8099 24.8682 18.9673 24.8839C19.3401 24.9216 19.6712 24.7719 19.9039 24.4865C19.9088 24.4805 19.921 24.485 19.9182 24.4928C19.855 24.6646 19.7459 24.7855 19.569 24.8651C19.476 24.907 19.2935 24.9701 19.1015 24.9536C18.8477 24.932 18.6561 24.9123 18.5903 24.936Z" fill="#3B1818"/>
<path d="M21.0658 23.9333C21.0658 23.9333 21.123 24.0987 21.4546 24.1122C21.7862 24.1258 22.1161 23.8799 22.1803 23.8088C22.2442 23.7382 22.3428 23.5025 22.3428 23.5025C22.3428 23.5025 22.0706 23.4148 21.8418 23.3804C21.613 23.3457 21.2851 23.3588 21.0658 23.9333Z" fill="white"/>
<path d="M22.0389 23.5473C22.1056 23.7402 21.9814 23.9581 21.7617 24.0341C21.5421 24.11 21.3101 24.0153 21.2434 23.8223C21.1766 23.6292 21.3005 23.4114 21.5202 23.3355C21.7399 23.2595 21.9722 23.3542 22.0389 23.5473Z" fill="#5089CF"/>
<path d="M21.8889 23.3713C21.6117 23.2659 21.4249 23.357 21.2431 23.5842C21.2436 23.6134 21.2471 23.6427 21.2569 23.6708C21.3137 23.8353 21.511 23.9161 21.6981 23.8514C21.8849 23.7868 21.9905 23.6013 21.9337 23.4369C21.9257 23.4139 21.9145 23.3931 21.9014 23.3734C21.8972 23.3729 21.8932 23.3729 21.8889 23.3713Z" fill="#3B1818"/>
<path d="M21.4855 23.2991C21.0824 23.4611 21.0941 23.8305 21.0445 23.9256C21.0335 23.9469 21.0652 23.9589 21.078 23.9395C21.1763 23.7924 21.2211 23.5984 21.3568 23.4722C21.62 23.2283 21.8475 23.3931 22.0957 23.4797C22.2842 23.5458 22.4892 23.5325 22.6152 23.3615C22.5334 23.4101 22.3417 23.4884 22.1577 23.4139C21.8765 23.3003 21.6904 23.2169 21.4855 23.2991Z" fill="#3B1818"/>
<path d="M21.8801 22.7723C21.4396 22.5313 20.7967 22.9696 20.8643 23.4219C21.0017 23.1613 21.0522 23.0293 21.2363 22.9059C21.4553 22.7587 21.6327 22.7672 21.8704 22.7953C21.8865 22.7972 21.8922 22.7787 21.8801 22.7723Z" fill="#3B1818"/>
<path d="M22.4925 23.5869C22.3063 23.5999 22.278 23.6692 22.1638 23.7787C21.8936 24.0388 21.5411 24.1254 21.1818 24.0446C21.1739 24.0431 21.1674 24.054 21.1744 24.0584C21.3302 24.1546 21.4908 24.1822 21.6793 24.1355C21.7783 24.111 21.9605 24.048 22.1013 23.9164C22.2876 23.7428 22.4258 23.609 22.4925 23.5869Z" fill="#3B1818"/>
<path d="M25.1975 26.8629C25.1636 26.8637 25.1159 26.8644 25.0822 26.8637C27.3686 29.6742 30.1122 35.0815 26.2157 37.7594C26.081 37.8522 25.6899 38.067 25.2672 38.2105C24.8297 38.3592 24.3595 38.4357 24.1812 38.4452C19.4693 38.6929 18.3129 32.7317 18.3993 29.1354C18.3768 29.1587 18.3093 29.2082 18.3061 29.2119C18.0983 32.8884 19.3591 38.9312 24.1232 38.5616C24.2082 38.5552 24.6625 38.5605 25.3091 38.3317C25.9212 38.115 26.1946 37.907 26.3916 37.7751C30.3251 35.1415 27.6164 29.6455 25.1975 26.8629Z" fill="#3B1818"/>
<path d="M23.5192 36.9853C23.7828 37.2324 24.2132 37.2537 24.5122 37.0261C25.1529 37.7525 25.8919 37.3235 26.3034 37.2243C25.9813 37.0476 25.4202 36.6365 25.349 36.2805C25.3177 36.1228 25.3743 35.95 25.3434 35.7904C25.2975 35.5511 25.1627 35.3445 24.9425 35.2101C24.5785 34.9879 24.1151 35.1492 23.4376 35.3191C23.8251 35.8406 22.9641 36.4648 23.5192 36.9853Z" fill="#51AD37"/>
<path d="M21.1785 28.2999C21.1725 28.3016 20.4934 28.0818 19.7527 28.8944C19.5434 29.1239 19.598 29.6461 19.5827 29.9414C19.5793 29.939 19.5787 29.9351 19.5745 29.9336C19.0579 29.7364 18.7105 30.3066 18.7504 30.7065C18.7943 31.1401 19.0779 31.5067 19.4816 31.6989C19.9512 32.3224 20.8319 32.5259 21.4351 31.6234C21.6771 31.2615 21.8459 30.8394 21.6519 30.4593C21.5434 30.2465 21.3344 30.0999 21.1377 29.9591C20.9704 29.8393 20.7023 29.7137 20.5957 29.5416C20.1035 28.7483 21.1913 28.2965 21.1785 28.2999Z" fill="#51AD37"/>
<path d="M25.1056 27.8163C24.319 26.8232 22.6103 26.4335 21.3595 27.0775C21.6973 27.1589 21.8585 27.1245 22.251 27.391C22.5041 27.563 22.5547 27.9926 22.3673 28.2599C22.274 28.3923 22.0393 28.493 21.9227 28.6234C21.7041 28.8675 21.5722 29.175 21.6791 29.4659C21.7569 29.6793 21.9082 29.8081 22.0922 29.8867C21.8113 30.5064 22.2322 31.167 23.1362 31.2781C23.8376 31.3645 24.6211 31.0419 25.0888 30.528C25.8783 29.8137 25.6619 28.518 25.1056 27.8163Z" fill="#51AD37"/>
<path d="M26.4768 36.3218C26.4819 36.3238 26.5312 35.7296 26.5285 35.0935C26.5273 34.7992 25.9587 34.6285 25.6656 34.6335C25.6308 34.9291 25.4902 35.9579 26.4768 36.3218Z" fill="#51AD37"/>
<path d="M24.4385 27.8597C24.4598 28.2055 24.298 28.534 24.1276 28.857C24.1357 28.529 24.0868 28.2076 23.9486 27.9111C23.7555 27.4973 23.1846 26.8142 22.5994 27.1365C22.5904 27.1411 22.5933 27.1548 22.6029 27.1559C23.6661 27.2656 23.9062 27.9707 23.8521 28.7672C23.6424 28.3778 23.1909 28.1038 22.6929 28.2915C22.6604 28.304 22.6639 28.343 22.695 28.3499C22.9967 28.4164 23.2935 28.4412 23.5196 28.6466C23.7075 28.8174 23.7729 29.029 23.7877 29.256C23.7321 29.552 23.6523 29.8441 23.5721 30.1137C23.4297 29.5495 23.0383 29.0746 22.4433 29.3321C22.4311 29.3372 22.4325 29.3542 22.4469 29.3531C22.9637 29.3103 23.2699 29.8211 23.371 30.1965C23.4659 30.5488 23.3639 30.8832 23.3592 31.2402C23.359 31.2788 23.4222 31.2998 23.4504 31.2643C23.571 31.1084 23.6288 30.8667 23.6312 30.6051C23.6689 30.5288 23.7064 30.4521 23.7417 30.3733C23.7487 30.4242 23.7518 30.4749 23.7639 30.5256C23.772 30.5597 23.8239 30.5418 23.827 30.5123C23.8873 29.9051 24.0702 29.4076 24.3329 28.8362C24.4899 28.4938 24.5549 28.2027 24.4543 27.8562C24.4516 27.8485 24.4376 27.8517 24.4385 27.8597Z" fill="#6CC62E"/>
<path d="M22.7632 33.3272C22.041 32.6333 20.7066 32.52 20.2714 33.3017C19.7937 34.1592 19.9398 35.9438 21.3248 35.8372C21.1748 36.2777 21.1938 36.7436 21.5164 37.0964C21.8774 37.491 22.8926 37.4041 23.1334 37.1346C22.5117 36.9709 22.1261 36.334 22.4829 36.0017C22.5526 35.9 23.23 35.2322 23.2748 34.7335C23.3214 34.2166 23.137 33.6865 22.7632 33.3272Z" fill="#51AD37"/>
<path d="M25.0969 30.4794C24.9657 29.8498 24.3965 29.3439 23.5723 29.5209C22.9645 29.6512 22.3325 30.0837 22.0015 30.612C21.8536 30.6111 21.5288 30.6451 21.3735 30.7144C20.7228 31.0027 20.2432 31.546 20.0421 32.1814C19.7435 33.125 20.568 34.1189 21.595 34.1844C21.7253 34.9831 22.357 35.7613 23.2907 35.8188C23.9547 35.8599 24.7257 35.5681 25.0468 34.9837C25.1502 34.7962 25.1022 34.5775 25.0853 34.3624C25.1263 34.3437 25.2602 34.3178 25.2999 34.2963C25.9778 33.9326 26.459 33.4907 26.5654 32.8198C26.6094 32.5401 26.5853 32.2128 26.5035 31.8931C27.0117 30.983 25.8841 30.0845 25.0969 30.4794Z" fill="#ED1D24"/>
<path d="M24.8376 34.3758C23.8575 34.6993 23.0595 34.5124 22.3706 33.9266C22.1231 34.6877 22.6374 35.45 23.4359 35.5234C23.89 35.5654 24.8924 35.0496 24.8376 34.3758Z" fill="#F25067"/>
<path d="M25.7335 31.3866C25.5343 32.2287 24.8916 32.6262 24 32.828C23.7955 32.8742 23.6248 32.8918 23.4592 32.8941C23.1418 32.52 23.1457 32.0512 23.3632 31.5695C23.6315 30.9751 24.1497 30.7391 24.8027 30.6591C24.4331 29.8381 23.443 30.1925 22.9987 30.6409C22.4611 31.1839 22.1893 32.1868 22.9915 32.5381C23.0071 32.665 23.0439 32.7812 23.1056 32.8766C22.7232 32.993 22.3805 32.7781 22.2736 32.7575C22.8398 33.7744 24.1832 34.0096 25.209 33.4837C25.9482 33.1042 26.6125 32.0354 25.7335 31.3866Z" fill="#F25067"/>
<path d="M26.345 31.6339C26.2682 31.5812 26.1702 31.6841 26.2393 31.7446C26.5954 32.0558 26.4912 32.634 26.3858 33.0459C26.2024 33.7612 25.707 34.0981 24.9332 34.2401C23.8985 34.4303 22.9188 34.4069 22.1874 33.7162C22.1806 33.7092 22.1662 33.7187 22.1702 33.7271C22.5828 34.5904 23.9469 34.7034 25.0172 34.4562C25.1561 35.0678 24.6018 35.6019 23.9188 35.6881C23.4502 35.7469 22.977 35.6263 22.6053 35.405C21.7734 34.9093 21.795 34.1562 21.7831 33.3253C21.7832 33.3085 21.7594 33.3076 21.7503 33.3209C21.0072 34.3959 22.0701 35.675 23.2067 35.8858C24.1872 36.0671 25.6557 35.4417 25.1544 34.4208C25.359 34.3662 25.5521 34.2997 25.7203 34.2219C26.591 33.817 27.1254 32.1713 26.345 31.6339Z" fill="white"/>
<path d="M25.5045 31.4323C25.5019 31.5951 25.356 31.9845 25.0367 32.1929C25.2849 31.5796 24.9415 31.1425 24.4713 31.1475C24.195 31.1502 23.9441 31.2765 23.7484 31.457C23.9273 31.1936 24.1732 30.9745 24.5044 30.8631C24.9997 30.6974 25.5111 30.9294 25.5045 31.4323ZM24.8053 32.0092C24.6166 32.2931 23.9995 32.5291 23.6968 32.6302C23.4538 32.711 23.3296 32.1069 23.5293 31.8816C23.7163 31.6706 23.9159 31.4515 24.2057 31.3623C24.7048 31.2084 25.0979 31.5702 24.8053 32.0092ZM25.1614 30.6198C24.8122 29.4138 24.0134 29.0234 22.9228 29.581C22.3913 29.852 22.1158 30.1478 21.9816 30.5583C21.0593 30.3727 20.1512 31.6086 19.9946 32.1578C19.7771 32.9173 20.0259 34.0798 21.2758 34.1936C21.3167 34.1969 21.3496 34.0962 21.3113 34.0855C20.4326 33.8399 19.9617 33.1403 20.1783 32.2728C20.3497 31.5863 21.0588 30.629 21.9402 30.6887C21.8239 31.0989 21.8648 31.5526 22.0085 32.0087C22.0143 32.0264 22.0477 32.0197 22.0455 32.0007C21.9575 31.2872 21.8533 30.5726 22.5702 30.0211C22.9434 29.7343 23.5014 29.4954 23.9783 29.5246C24.5542 29.5599 24.843 30.2015 25.0009 30.5857C24.1712 30.4765 23.3345 31.2023 23.1404 32.0229C23.0968 32.2067 23.2138 32.5909 23.3739 32.7558C22.9103 32.8142 22.462 32.7518 22.0127 32.6437C22.009 32.6427 22.0061 32.6482 22.009 32.6501C22.8129 33.2236 24.1356 33.0027 25.0347 32.4141C25.3611 32.2006 25.7037 31.8251 25.7504 31.4374C25.7951 31.0621 25.5362 30.7328 25.1614 30.6198Z" fill="white"/>
<path d="M47.0183 44.5008C47.7439 43.6291 48.4654 42.2375 48.7906 41.4155C49.3718 39.9448 49.4657 38.5067 49.4981 37.6337C49.5022 37.5169 49.5057 37.4089 49.5088 37.3138C49.5341 36.5386 49.5018 35.3785 49.542 34.4799L41.1098 31.0898C40.5168 31.7662 39.6905 32.581 39.1722 33.158C39.1092 33.2282 39.0379 33.3073 38.9613 33.3932C38.4488 33.9679 37.6657 34.8941 37.0769 36.1095C36.6247 37.0426 36.0693 38.9502 36.0238 40.1934C35.9433 42.3956 36.0709 44.5372 36.0709 44.5372L39.5422 45.9327L43.898 47.7027C43.898 47.7027 46.219 45.4612 47.0183 44.5008Z" fill="#FAD10F"/>
<path d="M49.913 33.2086C50.1485 32.5707 50.7481 30.7286 50.7481 30.7286C51.5197 28.8096 50.3735 26.5416 48.1885 25.6632C46.0039 24.7849 43.6068 25.6283 42.8353 27.5473C42.8353 27.5473 41.9911 29.4312 41.6864 30.0394C41.2653 30.8799 40.4944 31.7285 40.1653 32.1041L49.5262 35.847C49.5489 35.3478 49.5977 34.0621 49.913 33.2086Z" fill="#EE232C"/>
<path d="M46.4051 42.3226C48.2658 40.0146 48.5033 37.2984 48.7118 34.6272C47.7947 33.8549 47.1245 32.8458 46.7578 31.752L45.3772 31.1981C44.106 31.5547 42.8048 31.7112 41.4911 31.6721C39.7823 33.7567 38.0534 35.8895 37.7973 38.8619C37.7959 38.8823 37.7788 38.8909 37.7689 38.9054C37.7508 41.2336 38.8409 43.2815 40.7495 44.0488C42.6368 44.8076 44.8139 44.1097 46.4078 42.4574C46.3829 42.4129 46.37 42.3656 46.4051 42.3226Z" fill="#FBED81"/>
<path d="M41.4927 31.6726C41.1905 31.6638 40.8876 31.6548 40.5835 31.6237C40.0202 32.2222 39.3805 32.9284 38.9636 33.399C38.3845 34.0529 37.455 35.1544 36.8568 36.6183C36.8289 36.8202 36.831 37.0361 36.8532 37.2319C36.8954 37.607 37.1015 37.9 37.413 38.0493C37.5552 38.0794 37.6883 38.1029 37.8145 38.1195C37.7842 38.3847 37.7722 38.6466 37.7705 38.9059C37.7804 38.8914 37.7976 38.8828 37.7989 38.8624C38.055 35.89 39.7839 33.7572 41.4927 31.6726Z" fill="#FAD10F"/>
<path d="M47.3979 42.0631C47.7264 42.1711 48.0776 42.1022 48.3674 41.8605C48.519 41.7346 48.6702 41.5803 48.7906 41.4155C49.3718 39.9448 49.4631 38.5063 49.4981 37.6337C49.5215 37.0401 49.5526 36.0227 49.5592 35.2318C49.2561 35.0536 48.9763 34.8485 48.7131 34.627C48.5047 37.2982 48.2672 40.0144 46.4064 42.3224C46.3713 42.3654 46.3842 42.4127 46.4091 42.4573C46.6122 42.2465 46.8073 42.0232 46.9896 41.7829C47.1093 41.8757 47.245 41.9682 47.3979 42.0631Z" fill="#FAD10F"/>
<path d="M47.8752 26.4451C47.4608 26.2785 47.0362 26.1937 46.6234 26.1826C46.1074 26.1693 45.6098 26.271 45.1725 26.4738C45.0853 26.5139 45.0003 26.5585 44.9182 26.607C44.754 26.7041 44.6009 26.8167 44.4614 26.9437C44.1826 27.1983 43.9591 27.5111 43.8126 27.8754C43.7383 28.0601 43.6877 28.2494 43.6591 28.4401C43.461 29.7515 44.3073 31.137 45.7549 31.719C47.2501 32.3202 48.8753 31.8587 49.6099 30.6945C49.69 30.5676 49.7601 30.4325 49.8176 30.2896C50.4031 28.8331 49.5332 27.1117 47.8752 26.4451Z" fill="#FCD0B0"/>
<path d="M49.9989 29.3491C50.0012 28.1572 49.1874 26.973 47.8775 26.4464C46.5171 25.8994 45.0498 26.2332 44.243 27.1752C44.8189 27.3892 47.0481 27.7528 48.3308 27.1157C48.4335 27.7333 49.3417 29.0371 49.9989 29.3491Z" fill="#3B1818"/>
<path d="M46.2936 29.5095C46.2831 29.5054 46.2711 29.5002 46.2617 29.5045C46.1809 29.5398 46.2585 29.6951 46.3446 29.6869C46.356 29.6858 46.3672 29.6789 46.3703 29.6691C46.381 29.6345 46.3725 29.5402 46.2936 29.5095Z" fill="#3B1818"/>
<path d="M46.8178 29.7203C46.8279 29.7244 46.8402 29.729 46.8443 29.7387C46.8782 29.8201 46.7143 29.8784 46.6578 29.8129C46.6508 29.8043 46.6471 29.7915 46.6516 29.7822C46.6679 29.7498 46.7393 29.6876 46.8178 29.7203Z" fill="#3B1818"/>
<path d="M45.8828 30.1734C45.7976 30.4396 45.9358 30.6012 46.1378 30.6824C46.4041 30.7895 46.5548 30.7118 46.6778 30.4823C46.517 30.4451 46.1145 30.2783 45.8828 30.1734Z" fill="#F03B5E"/>
<path d="M46.4538 30.085C46.4343 30.0722 46.3477 30.0374 46.3244 30.033C46.1364 29.9974 45.9397 30.1873 45.7541 30.0615C45.7883 30.1944 45.9903 30.3548 46.2342 30.4444C46.4722 30.5485 46.729 30.5727 46.846 30.5005C46.625 30.4628 46.6141 30.1895 46.4538 30.085Z" fill="#F03B5E"/>
<path d="M46.9797 30.4559C46.8125 30.4962 46.6543 30.516 46.4819 30.4396C46.4055 30.4056 46.3622 30.3456 46.2819 30.3134C46.1908 30.2767 46.1287 30.2936 46.0334 30.2593C45.8561 30.1951 45.7556 30.0713 45.6628 29.9265C45.6618 29.9251 45.6592 29.9254 45.6592 29.9275C45.6706 30.0396 45.7577 30.1647 45.8547 30.2389C45.9077 30.2797 45.9665 30.2912 46.0401 30.3039C46.1187 30.3173 46.214 30.3265 46.2676 30.3488C46.3178 30.3696 46.3928 30.4311 46.4465 30.4673C46.5081 30.5089 46.5585 30.5414 46.625 30.5486C46.7467 30.5623 46.8958 30.5322 46.9816 30.4592C46.9834 30.4578 46.9814 30.4557 46.9797 30.4559Z" fill="#C51A39"/>
<path d="M48.532 31.0793C48.4221 31.3526 48.0815 31.4726 47.7704 31.3475C47.4596 31.2225 47.2964 30.9001 47.4063 30.6268C47.5161 30.3538 47.8571 30.2337 48.1679 30.3587C48.479 30.4838 48.6417 30.8063 48.532 31.0793Z" fill="#F8A0A4"/>
<path d="M45.3252 29.7901C45.2153 30.0634 44.8744 30.1832 44.5636 30.0582C44.2528 29.9333 44.0896 29.6108 44.1995 29.3375C44.3093 29.0645 44.6503 28.9445 44.9611 29.0694C45.2719 29.1944 45.4349 29.5171 45.3252 29.7901Z" fill="#F8A0A4"/>
<path d="M47.8612 26.4826C46.229 25.8264 44.4321 26.4589 43.8556 27.8928C43.2792 29.3264 44.1383 31.0267 45.7705 31.6829C47.4031 32.3392 49.2 31.7068 49.7764 30.2732C50.3529 28.8393 49.4938 27.1389 47.8612 26.4826ZM45.7408 31.7568C44.0623 31.082 43.1791 29.3334 43.7718 27.8591C44.3646 26.3846 46.2124 25.7342 47.8908 26.409C49.5696 27.0839 50.453 28.8324 49.8602 30.3068C49.2674 31.7811 47.4196 32.4318 45.7408 31.7568Z" fill="#3B1818"/>
<path d="M46.2218 28.8443C46.2218 28.8443 46.1515 29.0191 45.7941 29.0159C45.4367 29.013 45.095 28.731 45.0301 28.6513C44.9644 28.5716 44.8709 28.3128 44.8709 28.3128C44.8709 28.3128 45.1687 28.2332 45.4165 28.2084C45.6645 28.1832 46.0165 28.2147 46.2218 28.8443Z" fill="white"/>
<path d="M45.189 28.3747C45.107 28.5786 45.2287 28.8195 45.4609 28.9128C45.6935 29.0063 45.948 28.9167 46.03 28.7128C46.1121 28.5086 45.9904 28.2678 45.7578 28.1743C45.5256 28.0809 45.2711 28.1705 45.189 28.3747Z" fill="#5089CF"/>
<path d="M45.3609 28.1938C45.6639 28.0949 45.8604 28.2029 46.0438 28.4569C46.0416 28.4883 46.0363 28.5196 46.0243 28.5494C45.9545 28.7232 45.7376 28.7995 45.5398 28.72C45.3423 28.6406 45.239 28.4356 45.3089 28.2618C45.3186 28.2375 45.3318 28.2158 45.3466 28.1951C45.3515 28.195 45.3559 28.1952 45.3609 28.1938Z" fill="#3B1818"/>
<path d="M45.8021 28.139C46.2271 28.3347 46.1948 28.7314 46.2431 28.8363C46.2535 28.8596 46.219 28.871 46.2063 28.8495C46.1084 28.686 46.0705 28.475 45.9313 28.332C45.6611 28.0557 45.4078 28.2209 45.1362 28.3008C44.9299 28.3618 44.7102 28.3367 44.5838 28.146C44.6692 28.2027 44.8712 28.297 45.0731 28.2268C45.3815 28.1195 45.5857 28.0395 45.8021 28.139Z" fill="#3B1818"/>
<path d="M45.4044 27.5509C45.8912 27.3153 46.5595 27.8208 46.463 28.3039C46.3287 28.0161 46.2814 27.8714 46.0896 27.7288C45.8623 27.559 45.671 27.5587 45.4136 27.5762C45.3965 27.5775 45.3913 27.5572 45.4044 27.5509Z" fill="#3B1818"/>
<path d="M44.7027 28.3946C44.9026 28.4186 44.9291 28.4945 45.046 28.6184C45.3224 28.9123 45.6974 29.0244 46.0881 28.9566C46.0963 28.9552 46.1031 28.9675 46.0953 28.9718C45.9225 29.067 45.7485 29.0881 45.5485 29.028C45.4433 28.9964 45.2503 28.9188 45.1059 28.7698C44.9148 28.5731 44.7729 28.4217 44.7027 28.3946Z" fill="#3B1818"/>
<path d="M47.4233 29.3273C47.4233 29.3273 47.353 29.5022 47.6131 29.7472C47.8731 29.9925 48.3149 30.0255 48.4173 30.0131C48.5191 30.0008 48.7657 29.8787 48.7657 29.8787C48.7657 29.8787 48.6063 29.6152 48.4446 29.4258C48.2831 29.236 48.0072 29.0151 47.4233 29.3273Z" fill="white"/>
<path d="M48.487 29.7006C48.405 29.9046 48.1502 29.994 47.918 29.9007C47.6857 29.8073 47.5641 29.5665 47.6461 29.3625C47.7282 29.1583 47.9827 29.0687 48.2149 29.1621C48.4471 29.2555 48.5691 29.4964 48.487 29.7006Z" fill="#5089CF"/>
<path d="M48.4894 29.4515C48.3384 29.1701 48.1222 29.1123 47.814 29.1686C47.7938 29.1928 47.776 29.219 47.764 29.2488C47.6941 29.4226 47.7974 29.6277 47.9953 29.7072C48.1927 29.7866 48.4096 29.7103 48.4794 29.5365C48.4892 29.5122 48.4947 29.4874 48.498 29.4621C48.4949 29.4588 48.4916 29.4559 48.4894 29.4515Z" fill="#3B1818"/>
<path d="M48.2123 29.108C47.7702 28.9551 47.5189 29.2638 47.4114 29.306C47.3874 29.3155 47.4048 29.3477 47.4289 29.341C47.6126 29.2908 47.7861 29.1647 47.9855 29.1579C48.3717 29.1455 48.4403 29.44 48.581 29.6857C48.6876 29.8726 48.8635 30.0065 49.0868 29.9564C48.9859 29.9382 48.7748 29.8665 48.6777 29.676C48.5294 29.3851 48.437 29.1859 48.2123 29.108Z" fill="#3B1818"/>
<path d="M48.9051 28.9583C48.7172 28.4514 47.885 28.3537 47.6206 28.7693C47.9163 28.6544 48.0506 28.5827 48.2874 28.6124C48.5694 28.6473 48.7076 28.7796 48.881 28.9702C48.8927 28.9831 48.9105 28.9721 48.9051 28.9583Z" fill="#3B1818"/>
<path d="M48.8278 30.0531C48.6673 29.9321 48.5953 29.9685 48.4251 29.9769C48.0219 29.9976 47.6741 29.8191 47.439 29.4997C47.4337 29.4928 47.4206 29.4972 47.4233 29.5057C47.4821 29.6939 47.5931 29.8297 47.7793 29.9249C47.8772 29.9749 48.0698 30.0523 48.2771 30.0448C48.5512 30.0351 48.758 30.0239 48.8278 30.0531Z" fill="#3B1818"/>
<path d="M48.7138 34.6266C48.6857 34.6032 48.6465 34.5701 48.6195 34.5457C48.4939 38.4451 46.9064 44.7785 41.8477 44.2044C41.6726 44.1847 41.203 44.0832 40.758 43.9014C40.2973 43.7134 39.8609 43.4436 39.7093 43.3254C35.7036 40.1997 38.9726 34.5366 41.5822 31.6738C41.5475 31.6769 41.4576 31.6695 41.4524 31.6703C38.6875 34.5125 35.4457 40.3157 39.5799 43.3791C39.6536 43.434 40.0192 43.759 40.7064 44.0296C41.3571 44.2855 41.7263 44.3095 41.9796 44.3414C47.0371 44.9777 48.7157 38.5967 48.7138 34.6266Z" fill="#3B1818"/>
<path d="M40.2019 41.671C40.2417 42.0581 40.5767 42.3793 40.9805 42.4054C40.9885 43.4483 41.8921 43.6214 42.2968 43.8313C42.1597 43.4602 41.9938 42.7298 42.1873 42.3901C42.2731 42.2398 42.4411 42.1393 42.5288 41.9876C42.6604 41.7607 42.6967 41.4976 42.6126 41.2328C42.4735 40.7951 41.9829 40.599 41.3121 40.2588C41.2589 40.9564 40.1181 40.8559 40.2019 41.671Z" fill="#51AD37"/>
<path d="M44.4317 32.957C44.4256 32.9541 44.0287 32.2959 42.8527 32.4336C42.5205 32.4724 42.1962 32.9354 41.9752 33.1647C41.9741 33.1604 41.9764 33.1567 41.974 33.1526C41.6933 32.6275 41.0082 32.8458 40.7584 33.1991C40.4879 33.5826 40.4595 34.081 40.6521 34.5222C40.5936 35.3607 41.1659 36.148 42.2936 35.8402C42.7458 35.7169 43.1812 35.4929 43.2918 35.0469C43.3539 34.7972 43.2875 34.5304 43.227 34.2771C43.1755 34.0615 43.0463 33.7702 43.0811 33.555C43.2411 32.5624 44.4445 32.9633 44.4317 32.957Z" fill="#51AD37"/>
<path d="M47.9659 35.3367C48.0276 33.9739 46.9136 32.4506 45.442 32.091C45.6591 32.3957 45.8144 32.4815 45.9454 32.9753C46.0298 33.2939 45.7676 33.6789 45.4265 33.7639C45.257 33.8056 44.9952 33.7217 44.8083 33.7455C44.4582 33.7896 44.1339 33.9464 44.0153 34.2584C43.9279 34.4868 43.96 34.6984 44.0541 34.8923C43.3881 35.1977 43.2639 36.032 43.9204 36.7607C44.4297 37.3261 45.2944 37.6171 46.0375 37.5296C47.1837 37.5062 47.9227 36.3 47.9659 35.3367Z" fill="#51AD37"/>
<path d="M43.075 43.22C43.0777 43.2252 43.5374 42.777 43.9843 42.2579C44.1911 42.0178 43.8494 41.4775 43.6075 41.2746C43.3706 41.4903 42.5298 42.2275 43.075 43.22Z" fill="#51AD37"/>
<path d="M47.3929 34.901C47.166 35.1971 46.8025 35.35 46.436 35.4923C46.6742 35.2313 46.8613 34.9355 46.9583 34.5968C47.0935 34.1241 47.1117 33.1655 46.4084 33.0144C46.3978 33.0118 46.3905 33.0249 46.3975 33.0326C47.1845 33.8726 46.8818 34.6154 46.2754 35.2247C46.3798 34.7601 46.2062 34.2185 45.6688 34.0195C45.6335 34.0067 45.6089 34.0408 45.6293 34.0684C45.8276 34.3355 46.0514 34.5653 46.0902 34.8919C46.1223 35.1634 46.0261 35.3816 45.8779 35.5766C45.6237 35.778 45.3525 35.9592 45.097 36.1217C45.3795 35.5625 45.3967 34.9001 44.7311 34.6893C44.7176 34.6848 44.7068 34.6996 44.7192 34.7089C45.1697 35.0389 45.0579 35.6704 44.875 36.047C44.7034 36.4005 44.3844 36.6003 44.1285 36.8873C44.101 36.9184 44.1376 36.9802 44.1856 36.9713C44.3937 36.9297 44.6114 36.774 44.798 36.563C44.8825 36.5275 44.9672 36.4916 45.0516 36.4525C45.0213 36.4988 44.9881 36.5423 44.962 36.592C44.9445 36.6255 44.9995 36.6476 45.0228 36.6258C45.5005 36.1747 46.0005 35.8993 46.6175 35.6203C46.9869 35.4528 47.2454 35.262 47.4082 34.9093C47.4115 34.9011 47.3979 34.8938 47.3929 34.901Z" fill="#6CC62E"/>
<path d="M42.1703 38.1632C42.0731 37.0891 41.0682 36.0548 40.1625 36.383C39.1685 36.7428 38.0272 38.2969 39.2285 39.1882C38.7955 39.4405 38.482 39.8326 38.4952 40.3472C38.5101 40.9229 39.3968 41.5692 39.7828 41.52C39.3929 40.948 39.5292 40.1579 40.0539 40.1396C40.1824 40.1062 41.2047 40.0416 41.5932 39.6678C41.9961 39.2804 42.2205 38.7193 42.1703 38.1632Z" fill="#51AD37"/>
<path d="M46.0784 37.4957C46.4164 36.8912 46.3108 36.078 45.5157 35.6399C44.9296 35.3167 44.1103 35.222 43.4682 35.4179C43.3486 35.3127 43.0606 35.111 42.8853 35.0576C42.1528 34.8326 41.3792 34.9356 40.767 35.3102C39.858 35.8666 39.8265 37.2568 40.6152 38.0353C40.1573 38.7766 40.1213 39.8553 40.8398 40.5614C41.3507 41.0637 42.1835 41.3708 42.8572 41.1224C43.0737 41.043 43.1891 40.8313 43.3272 40.6444C43.3738 40.6582 43.5009 40.7317 43.5484 40.7422C44.3564 40.9252 45.0596 40.9057 45.6198 40.4354C45.853 40.239 46.0646 39.9559 46.2238 39.6383C47.2796 39.2572 46.9973 37.7305 46.0784 37.4957Z" fill="#ED1D24"/>
<path d="M43.1164 40.4805C42.0911 40.0514 41.5743 39.336 41.4279 38.3733C40.6892 38.8173 40.5691 39.8002 41.1665 40.4237C41.506 40.7785 42.6851 41.067 43.1164 40.4805Z" fill="#F25067"/>
<path d="M45.9554 38.6828C45.1989 39.2267 44.3956 39.0961 43.5283 38.6306C43.3294 38.5238 43.1783 38.4175 43.042 38.3025C43.048 37.7742 43.3823 37.3958 43.8992 37.1578C44.537 36.864 45.1249 37.038 45.7124 37.4341C45.9916 36.5057 44.9364 36.0946 44.2585 36.1454C43.4381 36.2073 42.509 36.8308 42.9131 37.6829C42.8361 37.797 42.784 37.9175 42.7668 38.0386C42.3737 37.8633 42.2469 37.4465 42.1745 37.3543C41.9168 38.5809 42.843 39.7207 44.0483 40.0174C44.9172 40.2308 46.2119 39.8309 45.9554 38.6828Z" fill="#F25067"/>
<path d="M46.2779 39.3156C46.2527 39.2186 46.1004 39.233 46.1139 39.331C46.1837 39.8354 45.6906 40.232 45.3142 40.4924C44.6599 40.9445 44.0193 40.8686 43.2899 40.4376C42.3144 39.8617 41.5344 39.1509 41.4275 38.0729C41.4269 38.0624 41.4085 38.06 41.4058 38.0696C41.1317 39.0628 42.1609 40.1178 43.2056 40.6726C42.8866 41.268 42.0589 41.3108 41.4428 40.8986C41.0203 40.6155 40.7207 40.1834 40.5748 39.7409C40.2484 38.7505 40.7978 38.1535 41.3748 37.4696C41.3868 37.456 41.368 37.4385 41.3513 37.4428C39.988 37.7922 39.949 39.5826 40.7242 40.5565C41.3933 41.3963 43.0289 41.9247 43.3421 40.7407C43.547 40.8408 43.751 40.9231 43.9427 40.9786C44.9364 41.2642 46.533 40.3035 46.2779 39.3156Z" fill="white"/>
<path d="M45.737 38.5582C45.6199 38.6887 45.2264 38.9023 44.8196 38.8463C45.4544 38.5229 45.4839 37.9251 45.098 37.5972C44.8715 37.4043 44.5784 37.3298 44.2919 37.3383C44.6232 37.2505 44.9779 37.246 45.3258 37.3893C45.8455 37.6043 46.0974 38.154 45.737 38.5582ZM44.7611 38.5336C44.4073 38.6312 43.7389 38.3873 43.4215 38.2557C43.1668 38.1498 43.4924 37.571 43.8138 37.5288C44.1149 37.4893 44.4319 37.4521 44.7305 37.5842C45.2449 37.8115 45.309 38.3832 44.7611 38.5336ZM46.0317 37.6554C46.5994 36.4284 46.2256 35.5469 44.9452 35.2302C44.3217 35.0752 43.889 35.1211 43.49 35.3602C42.8711 34.558 41.2602 34.9216 40.7451 35.2576C40.032 35.7214 39.4134 36.8422 40.3492 37.8173C40.3802 37.8488 40.478 37.7902 40.4544 37.7545C39.9135 36.9343 40.0246 36.0331 40.8133 35.4807C41.4373 35.0436 42.6897 34.7661 43.3642 35.437C42.98 35.6883 42.6929 36.0861 42.4877 36.5584C42.4799 36.5768 42.5118 36.5949 42.5234 36.578C42.9557 35.9357 43.3755 35.2812 44.3478 35.339C44.8537 35.3693 45.476 35.5691 45.8432 35.9296C46.2865 36.3649 46.0682 37.0905 45.9253 37.5144C45.3279 36.8397 44.1352 36.839 43.3979 37.3691C43.2327 37.4878 43.0565 37.8827 43.0703 38.1298C42.6521 37.85 42.3317 37.4827 42.0427 37.0775C42.0405 37.0741 42.0342 37.0766 42.0352 37.0802C42.2839 38.114 43.5152 38.8684 44.6618 39.0247C45.0779 39.0816 45.6215 39.0182 45.9333 38.7361C46.2347 38.4625 46.2567 38.0119 46.0317 37.6554Z" fill="white"/>
<path d="M34.6667 14.6665L53.3333 51.9998H16L34.6667 14.6665Z" fill="black" fill-opacity="0.2"/>
<path d="M32 12L53.3334 52H10.6667L32 12Z" fill="url(#paint0_linear_237_578)" stroke="#E2483D" stroke-width="1.5"/>
<path d="M32 14.6665L48 49.3332H16L32 14.6665Z" stroke="#FFA500" stroke-width="0.2" stroke-dasharray="1 1"/>
<path d="M32 46.6665C36.4183 46.6665 40 43.0848 40 38.6665C40 34.2482 36.4183 30.6665 32 30.6665C27.5817 30.6665 24 34.2482 24 38.6665C24 43.0848 27.5817 46.6665 32 46.6665Z" fill="#2C1810" stroke="url(#paint1_linear_237_578)" stroke-width="0.5"/>
<line x1="28.1" y1="32" x2="28.1" y2="45.3333" stroke="#FFA500" stroke-width="0.2"/>
<line x1="32.1" y1="30.6665" x2="32.1" y2="46.6665" stroke="#FFA500" stroke-width="0.2"/>
<line x1="36.1" y1="32" x2="36.1" y2="45.3333" stroke="#FFA500" stroke-width="0.2"/>
<path opacity="0.5" d="M32 40.0002C32.7364 40.0002 33.3334 39.4032 33.3334 38.6668C33.3334 37.9304 32.7364 37.3335 32 37.3335C31.2636 37.3335 30.6667 37.9304 30.6667 38.6668C30.6667 39.4032 31.2636 40.0002 32 40.0002Z" fill="#FFD700"/>
<path d="M32 4L26.6667 16H29.8667L30.9334 15.3333L32 13.3333L32.5334 12L34.1334 16H37.3334L32 4Z" fill="#E2483D"/>
<path d="M25.2747 36.2435C25.032 37.7182 24.9107 38.9222 24.9107 39.8555C24.9107 40.7888 24.948 41.6148 25.0227 42.3335H21.9707C21.6534 40.8495 21.4947 39.2535 21.4947 37.5455C21.4947 37.2562 21.504 36.8222 21.5227 36.2435C20.7294 36.4768 20.244 37.0135 20.0667 37.8535L18.6807 37.7695L19.1847 35.3335H28.4947C28.308 36.3602 28.0934 37.2002 27.8507 37.8535L26.4367 37.7695C26.474 37.6202 26.4927 37.4708 26.4927 37.3215C26.4927 36.9575 26.3807 36.6868 26.1567 36.5095C25.9327 36.3322 25.6387 36.2435 25.2747 36.2435ZM29.6998 42.2915C28.8691 41.2275 28.4538 40.1355 28.4538 39.0155C28.4538 37.8955 28.9204 36.9482 29.8538 36.1735C30.7871 35.3988 31.9818 35.0115 33.4378 35.0115C34.2124 35.0115 34.9824 35.1282 35.7478 35.3615C36.4198 36.2108 36.7558 37.1208 36.7558 38.0915C36.7558 39.3142 36.2564 40.3782 35.2578 41.2835C34.2591 42.1888 33.0504 42.6415 31.6318 42.6415C31.0251 42.6415 30.3811 42.5248 29.6998 42.2915ZM31.8278 36.2295C31.5011 36.7895 31.3378 37.4475 31.3378 38.2035C31.3378 38.9595 31.5011 39.6595 31.8278 40.3035C32.1638 40.9382 32.6211 41.3955 33.1998 41.6755C33.6384 41.1155 33.8578 40.4668 33.8578 39.7295C33.8578 38.9922 33.6758 38.3062 33.3118 37.6715C32.9571 37.0368 32.4624 36.5562 31.8278 36.2295ZM40.7486 40.5835C40.7486 41.1155 40.772 41.6988 40.8186 42.3335H37.7386C37.356 40.8495 37.1646 39.2722 37.1646 37.6015C37.1646 36.7522 37.216 35.9962 37.3186 35.3335H44.9066C45.1773 36.3882 45.3266 37.6435 45.3546 39.0995C43.9733 39.7155 42.438 40.1168 40.7486 40.3035V40.5835ZM40.7626 39.3375C41.36 39.2628 41.8593 39.1135 42.2606 38.8895C42.1113 37.9002 41.71 37.0228 41.0566 36.2575C40.9073 37.1815 40.8093 38.2082 40.7626 39.3375Z" fill="white"/>
<defs>
<linearGradient id="paint0_linear_237_578" x1="10.6667" y1="12" x2="47.5849" y2="59.7176" gradientUnits="userSpaceOnUse">
<stop stop-color="#8B4513"/>
<stop offset="1" stop-color="#6C5447"/>
</linearGradient>
<linearGradient id="paint1_linear_237_578" x1="24" y1="30.6665" x2="1624" y2="1630.67" gradientUnits="userSpaceOnUse">
<stop stop-color="#FFD700"/>
<stop offset="1" stop-color="#FFA500"/>
</linearGradient>
</defs>
</svg>
